<svg xmlns="http://www.w3.org/2000/svg" xmlns:xlink="http://www.w3.org/1999/xlink" width="99.244" height="67.263" viewBox="0 0 99.244 67.263"><defs><clipPath id="a"><path d="M0,0H14.677V19.035H0Z" transform="translate(0.065 0.151)" fill="none"/></clipPath><clipPath id="b"><path d="M0,0H7.273V12.851H0Z" transform="translate(0.163 0.151)" fill="none"/></clipPath><clipPath id="c"><path d="M0,0H5.28V15.662H0Z" transform="translate(0.162 0.112)" fill="none"/></clipPath></defs><g transform="translate(0 -0.188)"><path d="M9.314,0A10.968,10.968,0,0,0,.666,4.209,10.938,10.938,0,0,1,2.34,10.042,10.944,10.944,0,0,1,0,16.822a10.981,10.981,0,0,0,9.314,5.154l1.419,5.346c2.308-3.811,4.517-5.575,7.024-9.257A12.526,12.526,0,0,0,20.3,10.989,10.987,10.987,0,0,0,9.314,0" transform="translate(34.168 21.78)" fill="#f49e45"/><path d="M.71,19.116H.656A.665.665,0,0,1,0,18.461V.655a.67.67,0,0,1,1.339,0V17.778h9.148a.669.669,0,1,1,0,1.338Z" transform="translate(0 20.951)" fill="#111840"/><path d="M14.747,2.651,8.63,11.144a.637.637,0,0,1-.547.3H8.029a.622.622,0,0,1-.575-.3L1.339,2.679v15.7a.67.67,0,0,1-1.339,0V.685A.624.624,0,0,1,.273.166C.273.139.3.139.328.111a.688.688,0,0,1,.928.164L8.056,9.7,14.829.275a.683.683,0,0,1,.928-.164,1.332,1.332,0,0,1,.192.219.892.892,0,0,1,.109.354v17.7a.665.665,0,0,1-.655.655.647.647,0,0,1-.656-.655Z" transform="translate(61.807 21.03)" fill="#111840"/><g transform="translate(84.503 20.881)"><path d="M0,0H14.677V19.035H0Z" transform="translate(0.065 0.151)" fill="none"/><g clip-path="url(#a)"><path d="M14.028,19.035A.7.7,0,0,1,13.4,18.6l-1.694-4.506H2.993L1.3,18.6a.67.67,0,0,1-.628.437.774.774,0,0,1-.1-.012,1.025,1.025,0,0,0-.145-.015.709.709,0,0,1-.376-.388.632.632,0,0,1-.008-.487L6.681.409A.734.734,0,0,1,7.337,0a.677.677,0,0,1,.656.409l6.636,17.724a.675.675,0,0,1,0,.51.664.664,0,0,1-.352.365.736.736,0,0,0-.141.015A.551.551,0,0,1,14.028,19.035ZM7.364,2.486,3.486,12.754h7.728Z" transform="translate(0.065 0.151)" fill="#111840"/></g></g><path d="M2.31,10.374A1.678,1.678,0,0,1,1.133,10a1.372,1.372,0,0,1-.41-1.045A3.64,3.64,0,0,1,.75,8.569a2.866,2.866,0,0,1,.06-.386l.951-5.36H0l.1-.579H1.843L2.243,0h.649l-.4,2.245H4.585l-.094.579h-2.1L1.432,8.3a2.249,2.249,0,0,0-.048.331c-.014.164-.016.252-.016.3a.761.761,0,0,0,.257.662,1.3,1.3,0,0,0,.767.2,2.446,2.446,0,0,0,.369-.036,1.444,1.444,0,0,0,.4-.118l.2-.091v.6l-.089.034a3.2,3.2,0,0,1-.46.14,2.323,2.323,0,0,1-.5.053" transform="translate(37.163 2.865)" fill="#111840"/><g transform="translate(44.693 0.037)"><path d="M0,0H7.273V12.851H0Z" transform="translate(0.163 0.151)" fill="none"/><g clip-path="url(#b)"><path d="M5.7,12.851l.843-4.732c.021-.114.041-.248.059-.408s.023-.282.023-.4a2.65,2.65,0,0,0-.11-.752,1.888,1.888,0,0,0-.341-.653,1.707,1.707,0,0,0-.6-.461,2.128,2.128,0,0,0-.922-.178,2.683,2.683,0,0,0-1.13.245,3.119,3.119,0,0,0-.963.711,4.428,4.428,0,0,0-.749,1.139A5.968,5.968,0,0,0,1.351,8.9l-.7,3.95H0L2.261,0h.65L1.8,6.339a3.678,3.678,0,0,1,1.006-1.06,3.3,3.3,0,0,1,1.9-.59,2.7,2.7,0,0,1,1.13.222,2.353,2.353,0,0,1,.8.581,2.46,2.46,0,0,1,.476.839,3.1,3.1,0,0,1,.156.976,4.644,4.644,0,0,1-.1.892l-.819,4.652Z" transform="translate(0.163 0.151)" fill="#111840"/></g></g><path d="M3.666,8.4a4.226,4.226,0,0,1-1.557-.268A3.243,3.243,0,0,1,.955,7.38,3.15,3.15,0,0,1,.241,6.233,4.245,4.245,0,0,1,0,4.78,5.043,5.043,0,0,1,.326,2.993,4.837,4.837,0,0,1,1.252,1.46,4.573,4.573,0,0,1,2.679.4,4.245,4.245,0,0,1,4.523,0a3.616,3.616,0,0,1,1.4.252,2.846,2.846,0,0,1,.99.683A2.7,2.7,0,0,1,7.5,1.944,3.945,3.945,0,0,1,7.681,3.15c0,.114-.009.26-.027.447a3.676,3.676,0,0,1-.095.553l-.026.105H.676A3.633,3.633,0,0,0,.645,4.7a3.184,3.184,0,0,0,.792,2.308,2.985,2.985,0,0,0,2.228.808,3.28,3.28,0,0,0,1.6-.381,4.3,4.3,0,0,0,1.217-1l.105-.126.381.446-.07.09A4.288,4.288,0,0,1,5.578,7.937,3.909,3.909,0,0,1,3.666,8.4ZM4.514.579a3.437,3.437,0,0,0-1.5.315,4.014,4.014,0,0,0-1.134.795,3.967,3.967,0,0,0-.755,1.055,4.585,4.585,0,0,0-.344.932H7a4.927,4.927,0,0,0,.033-.549,2.58,2.58,0,0,0-.669-1.851A2.452,2.452,0,0,0,4.514.579Z" transform="translate(54.949 4.876)" fill="#111840"/><path d="M.651,12.155H0L2.1.234h.65L2.474,1.695a3.933,3.933,0,0,1,.248-.315A4.263,4.263,0,0,1,3.539.656,3.9,3.9,0,0,1,5.722,0,4.145,4.145,0,0,1,7.278.269,3.136,3.136,0,0,1,8.4,1.017a3.132,3.132,0,0,1,.68,1.132A4.271,4.271,0,0,1,9.3,3.55a5.366,5.366,0,0,1-.315,1.827,4.864,4.864,0,0,1-.9,1.541A4.405,4.405,0,0,1,6.672,7.991a4.263,4.263,0,0,1-1.865.4A3.408,3.408,0,0,1,2.65,7.708a3.1,3.1,0,0,1-1-1.324l-1,5.769ZM5.688.6A3.1,3.1,0,0,0,4.216.954a3.869,3.869,0,0,0-1.181.967A4.824,4.824,0,0,0,2.243,3.3a4.564,4.564,0,0,0-.29,1.6,3.266,3.266,0,0,0,.2,1.143,2.678,2.678,0,0,0,.568.918,2.739,2.739,0,0,0,.9.619,2.963,2.963,0,0,0,1.184.229,3.507,3.507,0,0,0,1.576-.351,3.84,3.84,0,0,0,1.22-.94,4.263,4.263,0,0,0,.781-1.356,4.728,4.728,0,0,0,.274-1.6A3.662,3.662,0,0,0,8.475,2.4a2.63,2.63,0,0,0-.552-.941A2.578,2.578,0,0,0,7,.826,3.41,3.41,0,0,0,5.688.6Z" transform="translate(21.571 55.281)" fill="#111840"/><path d="M.65,8.162H0l1.044-5.9c.022-.121.047-.271.074-.447s.053-.355.074-.536.044-.36.066-.528a3.145,3.145,0,0,0,.032-.4V.217h.661L1.936.371c-.011.111-.028.253-.051.419s-.044.345-.067.538c-.011.1-.023.194-.038.294a3.442,3.442,0,0,1,1-1.083h0A3.073,3.073,0,0,1,4.49,0h.15a.7.7,0,0,1,.168.022l.123.032L4.837.63,4.69.592A.35.35,0,0,0,4.6.581H4.508A2.387,2.387,0,0,0,3.289.886a3.193,3.193,0,0,0-.924.815,4.513,4.513,0,0,0-.638,1.131,7.063,7.063,0,0,0-.359,1.25Z" transform="translate(34.293 55.281)" fill="#111840"/><path d="M3.681,8.4a4.289,4.289,0,0,1-1.6-.276A3.271,3.271,0,0,1,.929,7.364a3.159,3.159,0,0,1-.7-1.13A4.141,4.141,0,0,1,0,4.831,5.281,5.281,0,0,1,.317,3.019a4.789,4.789,0,0,1,.907-1.543A4.48,4.48,0,0,1,2.666.4a4.4,4.4,0,0,1,1.9-.4A4.216,4.216,0,0,1,6.154.278,3.141,3.141,0,0,1,8,2.181a4.058,4.058,0,0,1,.233,1.385,5.323,5.323,0,0,1-.316,1.827A4.8,4.8,0,0,1,7,6.935,4.337,4.337,0,0,1,3.681,8.4ZM4.531.58a3.59,3.59,0,0,0-1.61.353A3.865,3.865,0,0,0,1.7,1.867,4.171,4.171,0,0,0,.92,3.217a4.765,4.765,0,0,0-.275,1.6A3.681,3.681,0,0,0,.829,5.982,2.533,2.533,0,0,0,2.323,7.577a3.509,3.509,0,0,0,1.358.239,3.661,3.661,0,0,0,1.6-.345,3.84,3.84,0,0,0,1.238-.935A4.235,4.235,0,0,0,7.31,5.179a4.739,4.739,0,0,0,.273-1.6A3.616,3.616,0,0,0,7.4,2.423a2.635,2.635,0,0,0-.561-.953A2.685,2.685,0,0,0,5.89.819,3.529,3.529,0,0,0,4.531.58Z" transform="translate(40.856 55.281)" fill="#111840"/><g transform="translate(49.763 51.677)"><path d="M0,0H5.28V15.662H0Z" transform="translate(0.162 0.112)" fill="none"/><g clip-path="url(#c)"><path d="M.634,15.662c-.1,0-.179,0-.259-.008a1.029,1.029,0,0,1-.267-.049L0,15.57.064,15l.152.037a1.687,1.687,0,0,0,.384.047,1.648,1.648,0,0,0,.8-.167,1.356,1.356,0,0,0,.484-.43,1.986,1.986,0,0,0,.281-.614c.062-.225.117-.468.165-.721l1.649-9.41h.649L2.965,13.168a6.693,6.693,0,0,1-.229.917,2.766,2.766,0,0,1-.412.807,1.9,1.9,0,0,1-.681.564A2.248,2.248,0,0,1,.634,15.662ZM4.725,1.128A.5.5,0,0,1,4.381,1,.512.512,0,0,1,4.236.6.64.64,0,0,1,4.383.192.518.518,0,0,1,4.792,0a.508.508,0,0,1,.343.126A.5.5,0,0,1,5.28.5a.634.634,0,0,1-.16.434A.517.517,0,0,1,4.725,1.128Z" transform="translate(0.162 0.112)" fill="#111840"/></g></g><path d="M3.666,8.4A4.263,4.263,0,0,1,2.11,8.129,3.278,3.278,0,0,1,.955,7.38,3.168,3.168,0,0,1,.241,6.234,4.263,4.263,0,0,1,0,4.78,5.079,5.079,0,0,1,.326,2.993a4.821,4.821,0,0,1,.926-1.533A4.54,4.54,0,0,1,2.679.4,4.231,4.231,0,0,1,4.524,0a3.588,3.588,0,0,1,1.4.253,2.865,2.865,0,0,1,.991.682A2.686,2.686,0,0,1,7.5,1.944a3.977,3.977,0,0,1,.182,1.205c0,.111-.008.253-.026.446a3.827,3.827,0,0,1-.095.553l-.026.106H.676A3.572,3.572,0,0,0,.645,4.7a3.18,3.18,0,0,0,.792,2.308,2.985,2.985,0,0,0,2.228.809,3.287,3.287,0,0,0,1.6-.381,4.327,4.327,0,0,0,1.216-1l.106-.126.378.447L6.9,6.846A4.283,4.283,0,0,1,5.579,7.937,3.92,3.92,0,0,1,3.666,8.4ZM4.514.58a3.435,3.435,0,0,0-1.5.313,4.035,4.035,0,0,0-1.134.795,3.931,3.931,0,0,0-.756,1.056,4.5,4.5,0,0,0-.344.932H7a4.9,4.9,0,0,0,.032-.55,2.577,2.577,0,0,0-.667-1.851A2.421,2.421,0,0,0,4.514.58Z" transform="translate(57.885 55.281)" fill="#111840"/><path d="M3.516,8.462A4.158,4.158,0,0,1,1.95,8.194a2.975,2.975,0,0,1-1.1-.751A3.072,3.072,0,0,1,.206,6.32,4.428,4.428,0,0,1,0,4.964,5.175,5.175,0,0,1,1.3,1.52,4.685,4.685,0,0,1,2.764.414,4.239,4.239,0,0,1,4.63,0,4.457,4.457,0,0,1,6.1.249a2.414,2.414,0,0,1,1.137.786l.073.094-.427.458-.1-.132A1.981,1.981,0,0,0,5.863.795,3.5,3.5,0,0,0,4.663.58a3.591,3.591,0,0,0-1.6.36,4.121,4.121,0,0,0-1.28.967,4.519,4.519,0,0,0-1.138,3A3.718,3.718,0,0,0,.82,6.071,2.58,2.58,0,0,0,1.349,7a2.528,2.528,0,0,0,.891.625,3.309,3.309,0,0,0,1.293.229A3.655,3.655,0,0,0,4.853,7.6a3.232,3.232,0,0,0,1.109-.693L6.078,6.8l.35.478-.087.085a3.852,3.852,0,0,1-1.285.82,4.236,4.236,0,0,1-1.539.284" transform="translate(68.745 55.281)" fill="#111840"/><path d="M2.311,10.375A1.673,1.673,0,0,1,1.136,10a1.364,1.364,0,0,1-.41-1.044A3.737,3.737,0,0,1,.752,8.57a2.594,2.594,0,0,1,.061-.387l.949-5.359H0l.1-.578H1.846L2.244,0h.65l-.4,2.245H4.587l-.094.578H2.4L1.435,8.305a2.035,2.035,0,0,0-.049.33c-.013.158-.016.249-.016.3a.757.757,0,0,0,.257.663,1.313,1.313,0,0,0,.768.2,2.747,2.747,0,0,0,.371-.034,1.48,1.48,0,0,0,.4-.118l.2-.094v.6l-.088.034a2.9,2.9,0,0,1-.461.138,2.269,2.269,0,0,1-.5.054" transform="translate(77.998 53.269)" fill="#111840"/><path d="M9.571,0C7.263,3.809,5.054,5.577,2.546,9.258A12.519,12.519,0,0,0,0,16.334a10.989,10.989,0,0,0,19.637,6.779A11,11,0,0,1,20.3,10.5a10.982,10.982,0,0,0-9.314-5.155Z" transform="translate(14.532 15.489)" fill="#f07c3c"/><path d="M2.34,0a10.995,10.995,0,0,0-.665,12.613,10.948,10.948,0,0,0,2.339-6.78A10.936,10.936,0,0,0,2.34,0" transform="translate(32.494 25.989)" fill="#e95c27"/></g></svg>